<svg width="44" height="44" viewBox="0 0 44 44" fill="none" xmlns="http://www.w3.org/2000/svg">
<path d="M29.3345 13.4433C29.3345 20.8677 22.7656 26.8867 14.6691 26.8867C12.6296 26.8867 10.6895 26.5048 8.92509 25.8173L2.69227 29.1171C1.98191 29.4913 1.11115 29.3615 0.538277 28.7963C-0.0345926 28.231 -0.164443 27.3526 0.21747 26.6423L2.93669 21.5094C1.09587 19.2637 0.00359876 16.4681 0.00359876 13.4433C0.00359876 6.01895 6.57251 0 14.6691 0C22.7656 0 29.3345 6.01895 29.3345 13.4433ZM29.3345 41.5522C22.1469 41.5522 16.1662 36.8088 14.9135 30.5531C24.0794 30.4385 32.0461 23.9154 32.9245 15.0703C39.2872 16.5368 44 21.8149 44 28.1088C44 31.1336 42.9077 33.9292 41.0669 36.1748L43.7861 41.3077C44.1604 42.0181 44.0306 42.8889 43.4653 43.4617C42.9001 44.0346 42.0217 44.1644 41.3113 43.7825L35.0785 40.4828C33.3141 41.1702 31.3739 41.5522 29.3345 41.5522Z" fill="#3BB964"/>
</svg>
