<svg width="53" height="35" viewBox="0 0 53 35" fill="none" xmlns="http://www.w3.org/2000/svg">
<path d="M4.96875 0C2.22559 0 0 1.95964 0 4.375C0 5.7513 0.734961 7.04557 1.9875 7.875L23.5188 22.0938C25.2889 23.2604 27.7111 23.2604 29.4813 22.0938L51.0125 7.875C52.265 7.04557 53 5.7513 53 4.375C53 1.95964 50.7744 0 48.0312 0H4.96875ZM0 12.0312V29.1667C0 32.3841 2.9709 35 6.625 35H46.375C50.0291 35 53 32.3841 53 29.1667V12.0312L32.4625 25.5937C28.9326 27.9271 24.0674 27.9271 20.5375 25.5937L0 12.0312Z" fill="#3BB964"/>
</svg>
