<svg width="71" height="54" viewBox="0 0 71 54" fill="none" xmlns="http://www.w3.org/2000/svg">
<path d="M0 4.68712C0 7.2748 2.68594 9.37424 6 9.37424C6.86953 9.37424 7.69453 9.22972 8.43984 8.96998L11.2148 9.96208C11.4352 10.0402 11.6883 9.99528 11.85 9.84881C12.0117 9.70234 12.0469 9.48751 11.9344 9.31174L10.7906 7.51111C11.55 6.72406 12 5.74758 12 4.68712C12 2.09944 9.31406 0 6 0C2.68594 0 0 2.09944 0 4.68712Z" fill="#43A047"/>
<g clip-path="url(#clip0_2639_1112)">
<path d="M14.5556 17.6129C14.5556 16.2192 14.807 14.8391 15.2956 13.5515C15.7842 12.2639 16.5003 11.0939 17.4031 10.1084C18.3059 9.12295 19.3777 8.34121 20.5572 7.80786C21.7368 7.27451 23.001 7 24.2778 7C25.5545 7 26.8188 7.27451 27.9983 7.80786C29.1779 8.34121 30.2496 9.12295 31.1524 10.1084C32.0552 11.0939 32.7714 12.2639 33.2599 13.5515C33.7485 14.8391 34 16.2192 34 17.6129C34 19.0066 33.7485 20.3867 33.2599 21.6743C32.7714 22.9619 32.0552 24.1319 31.1524 25.1174C30.2496 26.1029 29.1779 26.8846 27.9983 27.4179C26.8188 27.9513 25.5545 28.2258 24.2778 28.2258C23.001 28.2258 21.7368 27.9513 20.5572 27.4179C19.3777 26.8846 18.3059 26.1029 17.4031 25.1174C16.5003 24.1319 15.7842 22.9619 15.2956 21.6743C14.807 20.3867 14.5556 19.0066 14.5556 17.6129ZM9 49.4516C9 40.2411 15.8403 32.7742 24.2778 32.7742C32.7153 32.7742 39.5556 40.2411 39.5556 49.4516V50.0202C39.5556 52.2185 37.9236 54 35.9097 54H12.6458C10.6319 54 9 52.2185 9 50.0202V49.4516ZM46.5 11.5484C48.7101 11.5484 50.8298 12.5068 52.3926 14.2128C53.9554 15.9187 54.8333 18.2325 54.8333 20.6452C54.8333 23.0578 53.9554 25.3716 52.3926 27.0776C50.8298 28.7835 48.7101 29.7419 46.5 29.7419C44.2899 29.7419 42.1702 28.7835 40.6074 27.0776C39.0446 25.3716 38.1667 23.0578 38.1667 20.6452C38.1667 18.2325 39.0446 15.9187 40.6074 14.2128C42.1702 12.5068 44.2899 11.5484 46.5 11.5484ZM46.5 34.2903C53.401 34.2903 59 40.4022 59 47.9355V50.0581C59 52.2375 57.3854 54 55.3889 54H42.8194C43.3924 52.8155 43.7222 51.4605 43.7222 50.0202V49.4516C43.7222 44.5716 42.2118 40.08 39.6858 36.4982C41.6476 35.1052 43.9913 34.2903 46.5 34.2903Z" fill="#43A047"/>
</g>
<path d="M71 7.68712C71 10.2748 68.3141 12.3742 65 12.3742C64.1305 12.3742 63.3055 12.2297 62.5602 11.97L59.7852 12.9621C59.5648 13.0402 59.3117 12.9953 59.15 12.8488C58.9883 12.7023 58.9531 12.4875 59.0656 12.3117L60.2094 10.5111C59.45 9.72406 59 8.74758 59 7.68712C59 5.09944 61.6859 3 65 3C68.3141 3 71 5.09944 71 7.68712Z" fill="#43A047"/>
<defs>
<clipPath id="clip0_2639_1112">
<rect width="50" height="47" fill="white" transform="translate(9 7)"/>
</clipPath>
</defs>
</svg>
