<svg width="52" height="52" viewBox="0 0 52 52" fill="none" xmlns="http://www.w3.org/2000/svg">
<circle cx="26" cy="26" r="26" fill="white"/>
<g clip-path="url(#clip0_2682_2071)">
<path d="M28.2823 23.1761C28.2282 23.6429 28.5665 24.0676 29.0371 24.1238L33.856 24.6999C34.2024 24.7413 34.5349 24.5728 34.7034 24.2712C34.872 23.9695 34.8386 23.5983 34.6237 23.3284L33.5573 21.9894L40.6086 16.4719C41.1648 16.0367 41.2578 15.2338 40.8162 14.6794L40.283 14.0099C39.8415 13.4555 39.032 13.3587 38.4759 13.7939L31.4245 19.3114L30.3582 17.9724C30.1432 17.7025 29.7846 17.5858 29.4494 17.6783C29.1143 17.7707 28.8734 18.0543 28.8358 18.3962L28.2823 23.1761Z" fill="#3BB964"/>
</g>
<path d="M17.3827 16.4168C16.9198 15.3462 15.7127 14.7798 14.5642 15.08L14.2419 15.165C10.4566 16.1619 7.22201 19.7079 8.16542 24.0242C10.3394 33.937 18.4082 41.737 28.6626 43.8385C33.1336 44.7562 36.7959 41.6237 37.8272 37.9645L37.9151 37.6529C38.2315 36.537 37.6397 35.3701 36.5381 34.9283L30.8366 32.6342C29.8697 32.2433 28.7505 32.5152 28.0825 33.3026L25.8207 35.9762C21.7013 33.9993 18.3847 30.6913 16.4803 26.6299L19.0703 24.5906C19.8848 23.9506 20.1602 22.8686 19.7618 21.9283L17.3827 16.4168Z" fill="#3BB964"/>
<defs>
<clipPath id="clip0_2682_2071">
<rect width="9.35627" height="16.3648" fill="white" transform="matrix(0.626954 0.779056 -0.784407 0.620247 37.6797 10.4883)"/>
</clipPath>
</defs>
</svg>
