<svg width="47" height="39" viewBox="0 0 47 39" fill="none" xmlns="http://www.w3.org/2000/svg">
<path d="M22.1176 4.72445L5.56397 14.8974L19.2233 23.2996C19.6812 23.5792 20.191 23.7943 20.7353 23.9233V35.5588C20.7353 35.9531 20.7785 36.3331 20.8476 36.7059H5.52941C2.4796 36.7059 0 34.6483 0 32.1176V14.9189C0 13.4636 0.829412 12.0943 2.23768 11.234L19.2233 0.788603C20.0614 0.272426 21.0722 0 22.1176 0C23.1631 0 24.1739 0.279596 25.0119 0.788603L41.9976 11.234C42.6197 11.614 43.1294 12.0943 43.5009 12.6392C43.2849 12.6248 43.0689 12.6176 42.8529 12.6176H34.9562L22.1176 4.72445ZM24.8824 19.5C24.8824 17.6002 26.7399 16.0588 29.0294 16.0588H42.8529C45.1425 16.0588 47 17.6002 47 19.5V35.5588C47 37.4586 45.1425 39 42.8529 39H29.0294C26.7399 39 24.8824 37.4586 24.8824 35.5588V19.5ZM31.7941 20.6471C30.645 20.6471 29.7206 21.4142 29.7206 22.3676C29.7206 23.3211 30.645 24.0882 31.7941 24.0882H40.0882C41.2373 24.0882 42.1618 23.3211 42.1618 22.3676C42.1618 21.4142 41.2373 20.6471 40.0882 20.6471H31.7941ZM31.7941 27.5294C30.645 27.5294 29.7206 28.2965 29.7206 29.25C29.7206 30.2035 30.645 30.9706 31.7941 30.9706H36.6324C37.7814 30.9706 38.7059 30.2035 38.7059 29.25C38.7059 28.2965 37.7814 27.5294 36.6324 27.5294H31.7941Z" fill="#3BB964"/>
</svg>
