<svg width="52" height="52" viewBox="0 0 52 52" fill="none" xmlns="http://www.w3.org/2000/svg">
<circle cx="26" cy="26" r="26" fill="white"/>
<g clip-path="url(#clip0_2678_2044)">
<path d="M17.3827 16.4168C16.9198 15.3462 15.7127 14.7798 14.5642 15.08L14.2419 15.165C10.4566 16.1619 7.22201 19.7079 8.16542 24.0242C10.3394 33.937 18.4082 41.737 28.6626 43.8385C33.1336 44.7562 36.7959 41.6237 37.8272 37.9645L37.9151 37.6529C38.2315 36.537 37.6397 35.3701 36.5381 34.9283L30.8366 32.6342C29.8697 32.2433 28.7505 32.5152 28.0825 33.3026L25.8207 35.9762C21.7013 33.9993 18.3847 30.6913 16.4803 26.6299L19.0703 24.5906C19.8848 23.9506 20.1602 22.8686 19.7618 21.9283L17.3827 16.4168Z" fill="#3BB964"/>
</g>
<g clip-path="url(#clip1_2678_2044)">
<path d="M42.9635 15.659C43.0162 15.2031 42.6683 14.7864 42.1871 14.7292L37.2596 14.1433C36.9054 14.1012 36.5666 14.2642 36.396 14.5582C36.2254 14.8522 36.2615 15.2151 36.4826 15.4799L37.5795 16.7935L30.4037 22.1517C29.8378 22.5742 29.7471 23.3584 30.2013 23.9023L30.7498 24.5591C31.204 25.1029 32.0316 25.2014 32.5976 24.7788L39.7734 19.4206L40.8703 20.7341C41.0914 20.9989 41.4585 21.1146 41.8005 21.0259C42.1425 20.9372 42.3871 20.6612 42.4237 20.3273L42.9635 15.659Z" fill="#3BB964"/>
</g>
<defs>
<clipPath id="clip0_2678_2044">
<rect width="35" height="36" fill="white" transform="translate(3 10)"/>
</clipPath>
<clipPath id="clip1_2678_2044">
<rect width="10.6774" height="19.0561" fill="white" transform="matrix(-0.644873 -0.76429 0.798213 -0.602375 31.8359 29.2188)"/>
</clipPath>
</defs>
</svg>
